<mxfile host="app.diagrams.net" agent="Mozilla/5.0 (Windows NT 10.0; Win64; x64) AppleWebKit/537.36 (KHTML, like Gecko) Chrome/127.0.0.0 Safari/537.36 Edg/127.0.0.0" version="24.7.7">
  <diagram id="aIxxU2DI9F6SMkfM7Uml" name="chatbot_diagram">
    <mxGraphModel dx="1848" dy="1204" grid="1" gridSize="8" guides="1" tooltips="1" connect="1" arrows="1" fold="1" page="1" pageScale="1" pageWidth="4681" pageHeight="3300" background="#FFFFFF" math="0" shadow="0">
      <root>
        <mxCell id="0" />
        <mxCell id="1" parent="0" />
        <mxCell id="OjrtFCGWiRcdU_f4THi7-50" value="Data Layer" style="whiteSpace=wrap;strokeWidth=1;verticalAlign=top;fontFamily=Lucida Console;fontSize=18;fontStyle=1;fillColor=#f8cecc;strokeColor=#b85450;" vertex="1" parent="1">
          <mxGeometry x="1199" y="194" width="475" height="393" as="geometry" />
        </mxCell>
        <mxCell id="OjrtFCGWiRcdU_f4THi7-51" value="SQLite Database" style="shape=cylinder3;boundedLbl=1;backgroundOutline=1;size=10;strokeWidth=1;whiteSpace=wrap;fontFamily=Lucida Console;fontSize=17;fontStyle=0;fillColor=#99FFFF;" vertex="1" parent="1">
          <mxGeometry x="1240" y="363" width="132" height="72" as="geometry" />
        </mxCell>
        <mxCell id="OjrtFCGWiRcdU_f4THi7-52" value="Task Model" style="whiteSpace=wrap;strokeWidth=1;fontFamily=Lucida Console;fontSize=17;fontStyle=0" vertex="1" parent="1">
          <mxGeometry x="1541" y="229" width="94" height="34" as="geometry" />
        </mxCell>
        <mxCell id="OjrtFCGWiRcdU_f4THi7-53" value="Session Model" style="whiteSpace=wrap;strokeWidth=1;fontFamily=Lucida Console;fontSize=17;fontStyle=0" vertex="1" parent="1">
          <mxGeometry x="1531" y="313" width="114" height="34" as="geometry" />
        </mxCell>
        <mxCell id="OjrtFCGWiRcdU_f4THi7-54" value="Message Model" style="whiteSpace=wrap;strokeWidth=1;fontFamily=Lucida Console;fontSize=17;fontStyle=0" vertex="1" parent="1">
          <mxGeometry x="1527" y="421" width="122" height="34" as="geometry" />
        </mxCell>
        <mxCell id="OjrtFCGWiRcdU_f4THi7-55" value="Metric Model" style="whiteSpace=wrap;strokeWidth=1;fontFamily=Lucida Console;fontSize=17;fontStyle=0" vertex="1" parent="1">
          <mxGeometry x="1533" y="509" width="109" height="34" as="geometry" />
        </mxCell>
        <mxCell id="OjrtFCGWiRcdU_f4THi7-56" value="Integration Layer" style="whiteSpace=wrap;strokeWidth=1;verticalAlign=top;fontFamily=Lucida Console;fontSize=18;fontStyle=1;fillColor=#ffe6cc;strokeColor=#d79b00;" vertex="1" parent="1">
          <mxGeometry x="1199" y="70" width="215" height="104" as="geometry" />
        </mxCell>
        <mxCell id="OjrtFCGWiRcdU_f4THi7-57" value="LlamaAPI Integration" style="whiteSpace=wrap;strokeWidth=1;fontFamily=Lucida Console;fontSize=16;fontStyle=0" vertex="1" parent="1">
          <mxGeometry x="1224" y="105" width="165" height="34" as="geometry" />
        </mxCell>
        <mxCell id="OjrtFCGWiRcdU_f4THi7-58" value="Business Logic Layer" style="whiteSpace=wrap;strokeWidth=1;verticalAlign=top;fontFamily=Lucida Console;fontSize=18;fontStyle=1;fillColor=#fff2cc;strokeColor=#d6b656;" vertex="1" parent="1">
          <mxGeometry x="952" y="30" width="197" height="654" as="geometry" />
        </mxCell>
        <mxCell id="OjrtFCGWiRcdU_f4THi7-59" value="Chatbot Logic" style="whiteSpace=wrap;strokeWidth=1;fontFamily=Lucida Console;fontSize=17;fontStyle=0" vertex="1" parent="1">
          <mxGeometry x="993" y="175" width="114" height="34" as="geometry" />
        </mxCell>
        <mxCell id="OjrtFCGWiRcdU_f4THi7-60" value="Metric Calculation" style="whiteSpace=wrap;strokeWidth=1;fontFamily=Lucida Console;fontSize=17;fontStyle=0" vertex="1" parent="1">
          <mxGeometry x="977" y="479" width="147" height="34" as="geometry" />
        </mxCell>
        <mxCell id="OjrtFCGWiRcdU_f4THi7-61" value="Application Layer" style="whiteSpace=wrap;strokeWidth=1;verticalAlign=top;fontFamily=Lucida Console;fontSize=18;fontStyle=1;fillColor=#d5e8d4;strokeColor=#82b366;" vertex="1" parent="1">
          <mxGeometry x="440" y="24" width="462" height="672" as="geometry" />
        </mxCell>
        <mxCell id="OjrtFCGWiRcdU_f4THi7-62" value="Home Route" style="whiteSpace=wrap;strokeWidth=1;fontFamily=Lucida Console;fontSize=17;fontStyle=0;fillColor=default;" vertex="1" parent="1">
          <mxGeometry x="704" y="59" width="102" height="34" as="geometry" />
        </mxCell>
        <mxCell id="OjrtFCGWiRcdU_f4THi7-63" value="Flask Web Server" style="whiteSpace=wrap;strokeWidth=1;fontFamily=Lucida Console;fontSize=17;fontStyle=0;fillColor=default;" vertex="1" parent="1">
          <mxGeometry x="446" y="311" width="137" height="34" as="geometry" />
        </mxCell>
        <mxCell id="OjrtFCGWiRcdU_f4THi7-64" value="start_session Route" style="whiteSpace=wrap;strokeWidth=1;fontFamily=Lucida Console;fontSize=17;fontStyle=0;fillColor=default;" vertex="1" parent="1">
          <mxGeometry x="679" y="143" width="153" height="34" as="geometry" />
        </mxCell>
        <mxCell id="OjrtFCGWiRcdU_f4THi7-65" value="message Route" style="whiteSpace=wrap;strokeWidth=1;fontFamily=Lucida Console;fontSize=17;fontStyle=0;fillColor=default;" vertex="1" parent="1">
          <mxGeometry x="695" y="227" width="121" height="34" as="geometry" />
        </mxCell>
        <mxCell id="OjrtFCGWiRcdU_f4THi7-66" value="end_session Route" style="whiteSpace=wrap;strokeWidth=1;fontFamily=Lucida Console;fontSize=17;fontStyle=0;fillColor=default;" vertex="1" parent="1">
          <mxGeometry x="682" y="311" width="146" height="34" as="geometry" />
        </mxCell>
        <mxCell id="OjrtFCGWiRcdU_f4THi7-67" value="get_metrics Route" style="whiteSpace=wrap;strokeWidth=1;fontFamily=Lucida Console;fontSize=17;fontStyle=0;fillColor=default;" vertex="1" parent="1">
          <mxGeometry x="682" y="395" width="146" height="34" as="geometry" />
        </mxCell>
        <mxCell id="OjrtFCGWiRcdU_f4THi7-68" value="get_average_metrics Route" style="whiteSpace=wrap;strokeWidth=1;fontFamily=Lucida Console;fontSize=17;fontStyle=0;fillColor=default;" vertex="1" parent="1">
          <mxGeometry x="650" y="479" width="211" height="34" as="geometry" />
        </mxCell>
        <mxCell id="OjrtFCGWiRcdU_f4THi7-69" value="get_metrics_by_techniques Route" style="whiteSpace=wrap;strokeWidth=1;fontFamily=Lucida Console;fontSize=16;fontStyle=0;fillColor=default;" vertex="1" parent="1">
          <mxGeometry x="632" y="563" width="245" height="34" as="geometry" />
        </mxCell>
        <mxCell id="OjrtFCGWiRcdU_f4THi7-70" value="export_metrics Route" style="whiteSpace=wrap;strokeWidth=1;fontFamily=Lucida Console;fontSize=17;fontStyle=0;fillColor=default;" vertex="1" parent="1">
          <mxGeometry x="670" y="647" width="170" height="34" as="geometry" />
        </mxCell>
        <mxCell id="OjrtFCGWiRcdU_f4THi7-71" value="Web Browser" style="whiteSpace=wrap;strokeWidth=1;fontFamily=Lucida Console;fontSize=17;fontStyle=1;fillColor=#dae8fc;strokeColor=#6c8ebf;" vertex="1" parent="1">
          <mxGeometry x="224" y="311" width="109" height="34" as="geometry" />
        </mxCell>
        <mxCell id="OjrtFCGWiRcdU_f4THi7-72" value="LlamaAI API" style="whiteSpace=wrap;strokeWidth=1;fontFamily=Lucida Console;fontSize=15;fontStyle=1;fillColor=#99CCFF;" vertex="1" parent="1">
          <mxGeometry x="1538" y="105" width="99" height="34" as="geometry" />
        </mxCell>
        <mxCell id="OjrtFCGWiRcdU_f4THi7-73" value="HTTP" style="curved=1;startArrow=none;endArrow=block;exitX=1;exitY=0.5;entryX=0;entryY=0.5;rounded=0;strokeWidth=1;fontFamily=Lucida Console;fontSize=17;fontStyle=1" edge="1" parent="1" source="OjrtFCGWiRcdU_f4THi7-71" target="OjrtFCGWiRcdU_f4THi7-63">
          <mxGeometry relative="1" as="geometry">
            <Array as="points" />
          </mxGeometry>
        </mxCell>
        <mxCell id="OjrtFCGWiRcdU_f4THi7-74" value="" style="curved=1;startArrow=none;endArrow=block;exitX=0.55;exitY=0;entryX=0;entryY=0.5;rounded=0;strokeWidth=1;fontFamily=Lucida Console;fontSize=17;fontStyle=1" edge="1" parent="1" source="OjrtFCGWiRcdU_f4THi7-63" target="OjrtFCGWiRcdU_f4THi7-62">
          <mxGeometry relative="1" as="geometry">
            <Array as="points">
              <mxPoint x="609" y="76" />
            </Array>
          </mxGeometry>
        </mxCell>
        <mxCell id="OjrtFCGWiRcdU_f4THi7-75" value="" style="curved=1;startArrow=none;endArrow=block;exitX=0.57;exitY=0;entryX=0;entryY=0.5;rounded=0;strokeWidth=1;fontFamily=Lucida Console;fontSize=17;fontStyle=1" edge="1" parent="1" source="OjrtFCGWiRcdU_f4THi7-63" target="OjrtFCGWiRcdU_f4THi7-64">
          <mxGeometry relative="1" as="geometry">
            <Array as="points">
              <mxPoint x="609" y="160" />
            </Array>
          </mxGeometry>
        </mxCell>
        <mxCell id="OjrtFCGWiRcdU_f4THi7-76" value="" style="curved=1;startArrow=none;endArrow=block;exitX=0.64;exitY=0;entryX=0;entryY=0.5;rounded=0;strokeWidth=1;fontFamily=Lucida Console;fontSize=17;fontStyle=1" edge="1" parent="1" source="OjrtFCGWiRcdU_f4THi7-63" target="OjrtFCGWiRcdU_f4THi7-65">
          <mxGeometry relative="1" as="geometry">
            <Array as="points">
              <mxPoint x="609" y="244" />
            </Array>
          </mxGeometry>
        </mxCell>
        <mxCell id="OjrtFCGWiRcdU_f4THi7-77" value="" style="curved=1;startArrow=none;endArrow=block;exitX=1.01;exitY=0.5;entryX=0;entryY=0.5;rounded=0;strokeWidth=1;fontFamily=Lucida Console;fontSize=17;fontStyle=1" edge="1" parent="1" source="OjrtFCGWiRcdU_f4THi7-63" target="OjrtFCGWiRcdU_f4THi7-66">
          <mxGeometry relative="1" as="geometry">
            <Array as="points" />
          </mxGeometry>
        </mxCell>
        <mxCell id="OjrtFCGWiRcdU_f4THi7-78" value="" style="curved=1;startArrow=none;endArrow=block;exitX=0.64;exitY=1;entryX=0;entryY=0.5;rounded=0;strokeWidth=1;fontFamily=Lucida Console;fontSize=17;fontStyle=1" edge="1" parent="1" source="OjrtFCGWiRcdU_f4THi7-63" target="OjrtFCGWiRcdU_f4THi7-67">
          <mxGeometry relative="1" as="geometry">
            <Array as="points">
              <mxPoint x="609" y="412" />
            </Array>
          </mxGeometry>
        </mxCell>
        <mxCell id="OjrtFCGWiRcdU_f4THi7-79" value="" style="curved=1;startArrow=none;endArrow=block;exitX=0.57;exitY=1;entryX=0;entryY=0.5;rounded=0;strokeWidth=1;fontFamily=Lucida Console;fontSize=17;fontStyle=1" edge="1" parent="1" source="OjrtFCGWiRcdU_f4THi7-63" target="OjrtFCGWiRcdU_f4THi7-68">
          <mxGeometry relative="1" as="geometry">
            <Array as="points">
              <mxPoint x="609" y="496" />
            </Array>
          </mxGeometry>
        </mxCell>
        <mxCell id="OjrtFCGWiRcdU_f4THi7-80" value="" style="curved=1;startArrow=none;endArrow=block;exitX=0.55;exitY=1;entryX=0;entryY=0.5;rounded=0;strokeWidth=1;fontFamily=Lucida Console;fontSize=17;fontStyle=1" edge="1" parent="1" source="OjrtFCGWiRcdU_f4THi7-63" target="OjrtFCGWiRcdU_f4THi7-69">
          <mxGeometry relative="1" as="geometry">
            <Array as="points">
              <mxPoint x="609" y="580" />
            </Array>
          </mxGeometry>
        </mxCell>
        <mxCell id="OjrtFCGWiRcdU_f4THi7-81" value="" style="curved=1;startArrow=none;endArrow=block;exitX=0.54;exitY=1;entryX=0;entryY=0.5;rounded=0;strokeWidth=1;fontFamily=Lucida Console;fontSize=17;fontStyle=1" edge="1" parent="1" source="OjrtFCGWiRcdU_f4THi7-63" target="OjrtFCGWiRcdU_f4THi7-70">
          <mxGeometry relative="1" as="geometry">
            <Array as="points">
              <mxPoint x="609" y="664" />
            </Array>
          </mxGeometry>
        </mxCell>
        <mxCell id="OjrtFCGWiRcdU_f4THi7-82" value="" style="curved=1;startArrow=none;endArrow=block;exitX=1;exitY=0.5;entryX=0.38;entryY=0;rounded=0;strokeWidth=1;fontFamily=Lucida Console;fontSize=17;fontStyle=1" edge="1" parent="1" source="OjrtFCGWiRcdU_f4THi7-62" target="OjrtFCGWiRcdU_f4THi7-59">
          <mxGeometry relative="1" as="geometry">
            <Array as="points">
              <mxPoint x="952" y="76" />
            </Array>
          </mxGeometry>
        </mxCell>
        <mxCell id="OjrtFCGWiRcdU_f4THi7-83" value="" style="curved=1;startArrow=none;endArrow=block;exitX=1;exitY=0.5;entryX=0.04;entryY=0;rounded=0;strokeWidth=1;fontFamily=Lucida Console;fontSize=17;fontStyle=1" edge="1" parent="1" source="OjrtFCGWiRcdU_f4THi7-64" target="OjrtFCGWiRcdU_f4THi7-59">
          <mxGeometry relative="1" as="geometry">
            <Array as="points">
              <mxPoint x="952" y="160" />
            </Array>
          </mxGeometry>
        </mxCell>
        <mxCell id="OjrtFCGWiRcdU_f4THi7-84" value="" style="curved=1;startArrow=none;endArrow=block;exitX=1;exitY=0.38;entryX=0.15;entryY=1;rounded=0;strokeWidth=1;fontFamily=Lucida Console;fontSize=17;fontStyle=1" edge="1" parent="1" source="OjrtFCGWiRcdU_f4THi7-65" target="OjrtFCGWiRcdU_f4THi7-59">
          <mxGeometry relative="1" as="geometry">
            <Array as="points">
              <mxPoint x="902" y="234" />
              <mxPoint x="952" y="234" />
            </Array>
          </mxGeometry>
        </mxCell>
        <mxCell id="OjrtFCGWiRcdU_f4THi7-85" value="" style="curved=1;startArrow=none;endArrow=block;exitX=1;exitY=0.5;entryX=0.39;entryY=1;rounded=0;strokeWidth=1;fontFamily=Lucida Console;fontSize=17;fontStyle=1" edge="1" parent="1" source="OjrtFCGWiRcdU_f4THi7-66" target="OjrtFCGWiRcdU_f4THi7-59">
          <mxGeometry relative="1" as="geometry">
            <Array as="points">
              <mxPoint x="952" y="328" />
            </Array>
          </mxGeometry>
        </mxCell>
        <mxCell id="OjrtFCGWiRcdU_f4THi7-86" value="" style="curved=1;startArrow=none;endArrow=block;exitX=1;exitY=0.89;entryX=0.45;entryY=0;rounded=0;strokeWidth=1;fontFamily=Lucida Console;fontSize=17;fontStyle=1" edge="1" parent="1" source="OjrtFCGWiRcdU_f4THi7-65" target="OjrtFCGWiRcdU_f4THi7-60">
          <mxGeometry relative="1" as="geometry">
            <Array as="points">
              <mxPoint x="902" y="276" />
              <mxPoint x="952" y="276" />
            </Array>
          </mxGeometry>
        </mxCell>
        <mxCell id="OjrtFCGWiRcdU_f4THi7-87" value="" style="curved=1;startArrow=none;endArrow=block;exitX=1;exitY=0.5;entryX=0.36;entryY=0;rounded=0;strokeWidth=1;fontFamily=Lucida Console;fontSize=17;fontStyle=1" edge="1" parent="1" source="OjrtFCGWiRcdU_f4THi7-67" target="OjrtFCGWiRcdU_f4THi7-60">
          <mxGeometry relative="1" as="geometry">
            <Array as="points">
              <mxPoint x="952" y="412" />
            </Array>
          </mxGeometry>
        </mxCell>
        <mxCell id="OjrtFCGWiRcdU_f4THi7-88" value="" style="curved=1;startArrow=none;endArrow=block;exitX=1;exitY=0.5;entryX=0;entryY=0.5;rounded=0;strokeWidth=1;fontFamily=Lucida Console;fontSize=17;fontStyle=1" edge="1" parent="1" source="OjrtFCGWiRcdU_f4THi7-68" target="OjrtFCGWiRcdU_f4THi7-60">
          <mxGeometry relative="1" as="geometry">
            <Array as="points" />
          </mxGeometry>
        </mxCell>
        <mxCell id="OjrtFCGWiRcdU_f4THi7-89" value="" style="curved=1;startArrow=none;endArrow=block;exitX=1;exitY=0.5;entryX=0.36;entryY=1;rounded=0;strokeWidth=1;fontFamily=Lucida Console;fontSize=17;fontStyle=1" edge="1" parent="1" source="OjrtFCGWiRcdU_f4THi7-69" target="OjrtFCGWiRcdU_f4THi7-60">
          <mxGeometry relative="1" as="geometry">
            <Array as="points">
              <mxPoint x="952" y="580" />
            </Array>
          </mxGeometry>
        </mxCell>
        <mxCell id="OjrtFCGWiRcdU_f4THi7-90" value="" style="curved=1;startArrow=none;endArrow=block;exitX=1;exitY=0.5;entryX=0.43;entryY=1;rounded=0;strokeWidth=1;fontFamily=Lucida Console;fontSize=17;fontStyle=1" edge="1" parent="1" source="OjrtFCGWiRcdU_f4THi7-70" target="OjrtFCGWiRcdU_f4THi7-60">
          <mxGeometry relative="1" as="geometry">
            <Array as="points">
              <mxPoint x="952" y="664" />
            </Array>
          </mxGeometry>
        </mxCell>
        <mxCell id="OjrtFCGWiRcdU_f4THi7-91" value="" style="curved=1;startArrow=none;endArrow=block;exitX=0.71;exitY=0;entryX=0;entryY=0.5;rounded=0;strokeWidth=1;fontFamily=Lucida Console;fontSize=17;fontStyle=1" edge="1" parent="1" source="OjrtFCGWiRcdU_f4THi7-59" target="OjrtFCGWiRcdU_f4THi7-57">
          <mxGeometry relative="1" as="geometry">
            <Array as="points">
              <mxPoint x="1149" y="122" />
            </Array>
          </mxGeometry>
        </mxCell>
        <mxCell id="OjrtFCGWiRcdU_f4THi7-92" value="" style="curved=1;startArrow=none;endArrow=block;exitX=0.69;exitY=0.01;entryX=0;entryY=0.5;rounded=0;strokeWidth=1;fontFamily=Lucida Console;fontSize=17;fontStyle=1" edge="1" parent="1" source="OjrtFCGWiRcdU_f4THi7-51" target="OjrtFCGWiRcdU_f4THi7-52">
          <mxGeometry relative="1" as="geometry">
            <Array as="points">
              <mxPoint x="1414" y="246" />
            </Array>
          </mxGeometry>
        </mxCell>
        <mxCell id="OjrtFCGWiRcdU_f4THi7-93" value="" style="curved=1;startArrow=none;endArrow=block;exitX=0.93;exitY=0.01;entryX=0;entryY=0.5;rounded=0;strokeWidth=1;fontFamily=Lucida Console;fontSize=17;fontStyle=1" edge="1" parent="1" source="OjrtFCGWiRcdU_f4THi7-51" target="OjrtFCGWiRcdU_f4THi7-53">
          <mxGeometry relative="1" as="geometry">
            <Array as="points">
              <mxPoint x="1414" y="330" />
            </Array>
          </mxGeometry>
        </mxCell>
        <mxCell id="OjrtFCGWiRcdU_f4THi7-94" value="" style="curved=1;startArrow=none;endArrow=block;exitX=1;exitY=0.83;entryX=0;entryY=0.49;rounded=0;strokeWidth=1;fontFamily=Lucida Console;fontSize=17;fontStyle=1" edge="1" parent="1" source="OjrtFCGWiRcdU_f4THi7-51" target="OjrtFCGWiRcdU_f4THi7-54">
          <mxGeometry relative="1" as="geometry">
            <Array as="points">
              <mxPoint x="1414" y="438" />
            </Array>
          </mxGeometry>
        </mxCell>
        <mxCell id="OjrtFCGWiRcdU_f4THi7-95" value="" style="curved=1;startArrow=none;endArrow=block;exitX=0.74;exitY=1.01;entryX=0;entryY=0.49;rounded=0;strokeWidth=1;fontFamily=Lucida Console;fontSize=17;fontStyle=1" edge="1" parent="1" source="OjrtFCGWiRcdU_f4THi7-51" target="OjrtFCGWiRcdU_f4THi7-55">
          <mxGeometry relative="1" as="geometry">
            <Array as="points">
              <mxPoint x="1414" y="526" />
            </Array>
          </mxGeometry>
        </mxCell>
        <mxCell id="OjrtFCGWiRcdU_f4THi7-96" value="" style="curved=1;startArrow=block;endArrow=block;exitX=0.71;exitY=1;entryX=0.28;entryY=0.01;rounded=0;strokeWidth=1;fontFamily=Lucida Console;fontSize=17;fontStyle=1" edge="1" parent="1" source="OjrtFCGWiRcdU_f4THi7-59" target="OjrtFCGWiRcdU_f4THi7-51">
          <mxGeometry relative="1" as="geometry">
            <Array as="points">
              <mxPoint x="1149" y="264" />
              <mxPoint x="1199" y="264" />
            </Array>
          </mxGeometry>
        </mxCell>
        <mxCell id="OjrtFCGWiRcdU_f4THi7-97" value="" style="curved=1;startArrow=block;endArrow=block;exitX=1;exitY=0.5;entryX=0.2;entryY=1.01;rounded=0;strokeWidth=1;fontFamily=Lucida Console;fontSize=17;fontStyle=1" edge="1" parent="1" source="OjrtFCGWiRcdU_f4THi7-60" target="OjrtFCGWiRcdU_f4THi7-51">
          <mxGeometry relative="1" as="geometry">
            <Array as="points">
              <mxPoint x="1199" y="496" />
            </Array>
          </mxGeometry>
        </mxCell>
        <mxCell id="OjrtFCGWiRcdU_f4THi7-98" value="API Calls" style="curved=1;startArrow=none;endArrow=block;exitX=1;exitY=0.5;entryX=0;entryY=0.5;rounded=0;strokeWidth=1;fontFamily=Lucida Console;fontSize=17;fontStyle=1" edge="1" parent="1" source="OjrtFCGWiRcdU_f4THi7-57" target="OjrtFCGWiRcdU_f4THi7-72">
          <mxGeometry relative="1" as="geometry">
            <Array as="points" />
          </mxGeometry>
        </mxCell>
      </root>
    </mxGraphModel>
  </diagram>
</mxfile>
